<?xml version="1.0" encoding="utf-8"?>
<!-- Generator: Adobe Illustrator 18.0.0, SVG Export Plug-In . SVG Version: 6.00 Build 0)  -->
<!DOCTYPE svg PUBLIC "-//W3C//DTD SVG 1.1//EN" "http://www.w3.org/Graphics/SVG/1.1/DTD/svg11.dtd">
<svg version="1.1" id="图层_1" xmlns="http://www.w3.org/2000/svg" xmlns:xlink="http://www.w3.org/1999/xlink" x="0px" y="0px"
	 viewBox="0 0 2902.7 1182.8" enable-background="new 0 0 2902.7 1182.8" xml:space="preserve">
<g>
	<path fill="#4966C4" d="M368.6,805.4c-2.7,1.2-69.1,39.1,114.5,50.1c0,0,64.4,15.2-44.3,37.9c0,0-135.9,33.8,17.1,70
		c0,0,82.7,4.1,100.9,65.3c0,0,62.3,91.5,599.5,61.2c0,0,436.8-44.9,683.3-7.2c43.9,6.7,89.3,10.3,135.1,10.4
		c79,0.2,175.3-6.4,156.1-41.7c0,0-37.4-35,111.1-23.9c0,0,285.4,11.7,243.6-66.5c0,0-1.1-17.5-87.4-27c-10.5-1.2-20.3-3.8-27.5-7.9
		c-14.2-8-23.5-23.2,28.4-46.8c11.1-5.1,20.9-10.9,28.1-17.6c21.5-19.9,41.2-57.2-100.3-64.4c0,0-294.5,3.3-445.5,9.6
		c-47.7,2-95.5-0.4-141.6-7c-142-20.4-458.2-61.6-708.1-49.2C1031.5,750.6,458.1,766.4,368.6,805.4z"/>
	<path fill="#5A74D9" d="M1442.5,84.3c-80.2,103.2-260.5,356.2-264.6,362.9c-34.8,56.5-50.5,105.7-50.5,163.8
		c0,194.1,157.3,351.5,351.5,351.5c194.1,0,351.5-157.3,351.5-351.5c0-58.2-15.6-107-50.3-163.2c-3-4.8-184.3-259.6-264.3-363.4
		C1496.2,59.1,1462.1,59,1442.5,84.3L1442.5,84.3z"/>
	<path fill="#5A74D9" d="M1041.4,83.3v838.9h-236V256.4L714,489.5h38.5v182.5H425L673.3,83.3H1041.4z"/>
	<path fill="#5A74D9" d="M1910.6,83.3h444.4L2217.9,406c49.2,33.2,84.9,69.6,107.2,109.1c22.3,39.5,33.5,86.3,33.5,140.4
		c0,80.7-29.7,148.8-89.1,204.4c-59.4,55.5-132.6,83.3-219.4,83.3c-47.9,0-95.5-9-142.6-27V678.8c26.8,18.7,66.6,33.2,92.8,33.2
		c28.7,0,52.8-10.2,72.2-30.7c19.5-20.5,29.2-45.9,29.2-76.2c0-34.8-14.5-62.6-43.6-83.3c-29.1-20.7-68-31-116.8-31l62.1-165.3
		h-92.8V83.3z"/>
	<g>
		<path fill="#CBDBF7" d="M2492,232.8l-10-48l171.4,36.8l-5,117l-15.7,9.6c0,0-5.3,0.2-9.2,0c-4-0.2-22-109.2-22-109.2L2492,232.8z"
			/>
		<path fill="#6B8FE8" d="M2480.5,158.2c-2.1-0.5-11.3,5.4-27.4,16c-3.1,2-4.4,5.9-2.7,9.2l8.6,18.8c3.9,7.8,10.3,14.2,18.2,18.1
			l13.7,6.8L2480.5,158.2z"/>
		<path fill="#8EA5EF" d="M2487.4,204.8c0,0-42.9-36.7-6.9-46.6l225-21.3l164.8,36v82.9c0,13.1-8.9,24.6-21.7,27.8l-215.9,64.7
			l7.6-6.9c3-2.8,4.8-6.7,4.8-10.9l0-99.1l-150.9-37.6c-3.2-0.8-7.1,1.4-7.3,4.7L2487.4,204.8z"/>
		<path fill="#AEC5FF" d="M2489,293.2v-74.8c0-10.8,10.2-18.7,20.6-16l116.5,30c7.3,1.9,12.4,8.4,12.4,16v83.4
			c0,11.2-11,19.2-21.7,15.7l-116.5-38.6C2493.6,306.6,2489,300.3,2489,293.2z"/>
		<path fill="#5A74D9" d="M2479.9,158l142.1,33.3c0,0,14.4,17,12.4,39.7c-2,17,39.6,45.1,52.6,49.8l197.3-48.1
			c0,0,14.6-30.9-14-59.9l-164.8-36L2479.9,158z"/>
		<path fill="#5A74D9" d="M2581.5,266.7c1.4,19.7-4.8,36.6-17,37.4c-12.2,0.9-21.7-16-23.1-35.7c-1.4-19.7,5.9-34.8,18.1-35.7
			S2580.1,247,2581.5,266.7z"/>
	</g>
	<g>
		<path fill="#CBDBF7" d="M322.2,141.9l7.7-37l-132.2,28.4l3.9,90.3l12.1,7.4c0,0,4.1,0.2,7.1,0c3.1-0.2,17-84.3,17-84.3
			L322.2,141.9z"/>
		<path fill="#6B8FE8" d="M331.1,84.4c1.6-0.4,8.8,4.2,21.2,12.4c2.4,1.6,3.4,4.5,2.1,7.1l-6.6,14.5c-3,6.1-8,11-14,13.9l-10.6,5.2
			L331.1,84.4z"/>
		<path fill="#8EA5EF" d="M325.8,120.4c0,0,33.1-28.3,5.3-36L157.5,67.9L30.4,95.7v63.9c0,10.1,6.9,19,16.7,21.4l166.6,50l-5.8-5.4
			c-2.3-2.2-3.7-5.2-3.7-8.4l0-76.5l116.5-29c2.5-0.6,5.4,1.1,5.6,3.7L325.8,120.4z"/>
		<path fill="#AEC5FF" d="M324.6,188.5v-57.7c0-8.3-7.8-14.4-15.9-12.3l-89.9,23.1c-5.6,1.4-9.5,6.5-9.5,12.3v64.3
			c0,8.7,8.5,14.8,16.7,12.1l89.9-29.8C321,198.9,324.6,194,324.6,188.5z"/>
		<path fill="#5A74D9" d="M331.6,84.3L222,110c0,0-11.1,13.1-9.6,30.6c1.5,13.1-30.5,34.8-40.6,38.4L19.6,141.9
			c0,0-11.3-23.8,10.8-46.2l127.2-27.8L331.6,84.3z"/>
		<path fill="#5A74D9" d="M253.2,168.1c-1.1,15.2,3.7,28.2,13.1,28.9c9.4,0.7,16.8-12.3,17.8-27.5s-4.5-26.8-14-27.5
			C260.8,141.3,254.3,152.9,253.2,168.1z"/>
	</g>
	<path fill="none" stroke="#5A74D9" stroke-width="2.5961" stroke-miterlimit="10" d="M1384.4,546.7h-73.1v-22.6h73.1
		c6.3,0,11.3,5.1,11.3,11.3l0,0C1395.7,541.7,1390.6,546.7,1384.4,546.7z"/>
	<circle fill="none" stroke="#5A74D9" stroke-width="7.4589" stroke-miterlimit="10" cx="1316.8" cy="534.7" r="16.9"/>
	<g>
		<defs>
			<path id="SVGID_1_" d="M1442.5,84.3c-80.2,103.2-260.5,356.2-264.6,362.9c-34.8,56.5-50.5,105.7-50.5,163.8
				c0,194.1,157.3,351.5,351.5,351.5c194.1,0,351.5-157.3,351.5-351.5c0-58.2-15.6-107-50.3-163.2c-3-4.8-184.3-259.6-264.3-363.4
				C1496.2,59.1,1462.1,59,1442.5,84.3L1442.5,84.3z"/>
		</defs>
		<clipPath id="SVGID_2_">
			<use xlink:href="#SVGID_1_"  overflow="visible"/>
		</clipPath>
		<path clip-path="url(#SVGID_2_)" fill="#7E98ED" d="M1478.8,65.4c0,0-370.8,471.9-34.7,653.4c32.8,17.7,61.6,42.5,81.1,74.3
			c36.1,58.7,63.7,152.7-46.5,236.6c-176.3,134.3-646.2-71.2-564.1-449.6S1478.8,65.4,1478.8,65.4z"/>
	</g>
	<circle fill="none" stroke="#4966C4" stroke-width="6.5782" stroke-miterlimit="10" cx="1541.3" cy="408.4" r="119.2"/>
	<circle fill="none" stroke="#4966C4" stroke-width="5.324" stroke-miterlimit="10" cx="1541.3" cy="408.4" r="96.5"/>
	<polygon fill="#4966C4" points="1462.2,353.2 1589.1,492.2 1615.8,469.8 1486.1,329.3 	"/>
	<g>
		<path fill="none" stroke="#FF7002" stroke-width="37.2945" stroke-miterlimit="10" d="M1653.5,598.8
			c113.7-8.4,258.8-55.4,391.3-121.2"/>
		<path fill="none" stroke="#FF7002" stroke-width="37.2945" stroke-miterlimit="10" d="M1033.4,497.4c0,0,131.9,76.6,336.2,103.7"
			/>
		<path fill="none" stroke="#FF7002" stroke-width="7.4589" stroke-miterlimit="10" d="M1004.4,509.2l-89-52.3
			c-9.1-5.3-12.1-17-6.8-26l5.1-8.7c5.3-9.1,17-12.1,26-6.8l89,52.3c9.1,5.3,12.1,17,6.8,26l-5.1,8.7
			C1025.1,511.5,1013.4,514.5,1004.4,509.2z"/>
		<path fill="none" stroke="#FF7002" stroke-width="7.4589" stroke-miterlimit="10" d="M2165.4,447.7l-94,42.5
			c-9.6,4.3-20.9,0.1-25.2-9.5l-4.1-9.2c-4.3-9.6-0.1-20.9,9.5-25.2l94-42.5c9.6-4.3,20.9-0.1,25.2,9.5l4.1,9.2
			C2179.2,432,2175,443.3,2165.4,447.7z"/>
		<path fill="none" stroke="#FF7002" stroke-width="7.4589" stroke-miterlimit="10" d="M1625.5,621.4l-236.6,2.9
			c-13.3,0.2-24.2-10.5-24.3-23.8v0c-0.2-13.3,10.5-24.2,23.8-24.3l236.6-2.9c13.3-0.2,24.2,10.5,24.3,23.8l0,0
			C1649.4,610.3,1638.8,621.2,1625.5,621.4z"/>
		<polygon fill="#FFFFFF" points="1045.7,525.7 1079.3,500.1 1107,511.8 1070.9,538.8 		"/>
		<polygon fill="#FFFFFF" points="1115.3,555.9 1150.6,528.6 1178.2,538.2 1142.1,566 		"/>
		<polygon fill="#FFFFFF" points="1188.8,580.9 1222.9,552 1253.3,559.9 1214.8,588.4 		"/>
		<polygon fill="#FFFFFF" points="1255.8,598.8 1290.4,568.4 1323.4,575.1 1283.8,605.3 		"/>
		<polygon fill="#FFFFFF" points="1673.3,615.4 1698.6,575.2 1731.2,569.5 1703.6,612.3 		"/>
		<polygon fill="#FFFFFF" points="1761.2,601.7 1784,557.5 1817.4,548.4 1794.1,593.8 		"/>
		<polygon fill="#FFFFFF" points="1841.2,580.1 1864,533.5 1896.7,521.7 1874,569.9 		"/>
		<polygon fill="#FFFFFF" points="1941.2,544.5 1963.9,494.7 1994.9,480.8 1973.9,531 		"/>
	</g>
	<g>
		<path fill="none" stroke="#FF7002" stroke-width="37.2945" stroke-miterlimit="10" d="M1653.5,709.9
			c113.7-8.4,258.8-55.4,391.3-121.2"/>
		<path fill="none" stroke="#FF7002" stroke-width="37.2945" stroke-miterlimit="10" d="M1033.4,608.5c0,0,131.9,76.6,336.2,103.7"
			/>
		<path fill="none" stroke="#FF7002" stroke-width="7.4589" stroke-miterlimit="10" d="M1004.4,620.2l-89-52.3
			c-9.1-5.3-12.1-17-6.8-26l5.1-8.7c5.3-9.1,17-12.1,26-6.8l89,52.3c9.1,5.3,12.1,17,6.8,26l-5.1,8.7
			C1025.1,622.5,1013.4,625.6,1004.4,620.2z"/>
		<path fill="none" stroke="#FF7002" stroke-width="7.4589" stroke-miterlimit="10" d="M2165.4,558.7l-94,42.5
			c-9.6,4.3-20.9,0.1-25.2-9.5l-4.1-9.2c-4.3-9.6-0.1-20.9,9.5-25.2l94-42.5c9.6-4.3,20.9-0.1,25.2,9.5l4.1,9.2
			C2179.2,543.1,2175,554.4,2165.4,558.7z"/>
		<path fill="none" stroke="#FF7002" stroke-width="7.4589" stroke-miterlimit="10" d="M1625.5,732.4l-236.6,2.9
			c-13.3,0.2-24.2-10.5-24.3-23.8v0c-0.2-13.3,10.5-24.2,23.8-24.3l236.6-2.9c13.3-0.2,24.2,10.5,24.3,23.8v0
			C1649.4,721.4,1638.8,732.3,1625.5,732.4z"/>
		<polygon fill="#FFFFFF" points="1045.7,636.7 1079.3,611.2 1107,622.9 1070.9,649.9 		"/>
		<polygon fill="#FFFFFF" points="1115.3,667 1150.6,639.7 1178.2,649.3 1142.1,677.1 		"/>
		<polygon fill="#FFFFFF" points="1188.8,692 1222.9,663.1 1253.3,671 1214.8,699.5 		"/>
		<polygon fill="#FFFFFF" points="1255.8,709.9 1290.4,679.4 1323.4,686.2 1283.8,716.4 		"/>
		<polygon fill="#FFFFFF" points="1673.3,726.5 1698.6,686.3 1731.2,680.6 1703.6,723.4 		"/>
		<polygon fill="#FFFFFF" points="1761.2,712.8 1784,668.6 1817.4,659.5 1794.1,704.9 		"/>
		<polygon fill="#FFFFFF" points="1841.2,691.2 1864,644.6 1896.7,632.8 1874,680.9 		"/>
		<polygon fill="#FFFFFF" points="1941.2,655.6 1963.9,605.7 1994.9,591.9 1973.9,642.1 		"/>
	</g>
</g>
</svg>
